<svg xmlns="http://www.w3.org/2000/svg" version="1.1" xmlns:xlink="http://www.w3.org/1999/xlink" xmlns:svgjs="http://svgjs.dev/svgjs" width="2000" height="1247" viewBox="0 0 2000 1247"><g transform="matrix(1,0,0,1,-1.2121212121212466,0.504858299595071)"><svg viewBox="0 0 396 247" data-background-color="#ffffff" preserveAspectRatio="xMidYMid meet" height="1247" width="2000" xmlns="http://www.w3.org/2000/svg" xmlns:xlink="http://www.w3.org/1999/xlink"><g id="tight-bounds" transform="matrix(1,0,0,1,0.2400000000000091,-0.09999999999999432)"><svg viewBox="0 0 395.52 247.2" height="247.2" width="395.52"><g><svg></svg></g><g><svg viewBox="0 0 395.52 247.2" height="247.2" width="395.52"><g transform="matrix(1,0,0,1,75.54432,109.76892270798248)"><svg viewBox="0 0 244.43135999999998 27.66215458403503" height="27.66215458403503" width="244.43135999999998"><g><svg viewBox="0 0 244.43135999999998 27.66215458403503" height="27.66215458403503" width="244.43135999999998"><g><svg viewBox="0 0 244.43135999999998 27.66215458403503" height="27.66215458403503" width="244.43135999999998"><g><svg viewBox="0 0 244.43135999999998 27.66215458403503" height="27.66215458403503" width="244.43135999999998"><g id="textblocktransform"><svg viewBox="0 0 244.43135999999998 27.66215458403503" height="27.66215458403503" width="244.43135999999998" id="textblock"><g><svg viewBox="0 0 244.43135999999998 27.66215458403503" height="27.66215458403503" width="244.43135999999998"><g transform="matrix(1,0,0,1,0,0)"><svg width="244.43135999999998" viewBox="4.440000057220459 -40.5 362.4100036621094 41.0099983215332" height="27.66215458403503" data-palette-color="#ff0000"><path d="M4.44 0L4.44-38.16 12.23-38.16 12.23 0 4.44 0ZM21.38 0L21.38-28.81 28.61-28.81 28.61-26.37Q31.32-28.03 33.9-28.67 36.47-29.32 38.94-29.32L38.94-29.32Q42.38-29.32 45.26-28.22 48.14-27.12 50.19-24.9L50.19-24.9Q51.78-26.12 53.32-26.97 54.86-27.81 56.39-28.33 57.93-28.86 59.52-29.09 61.11-29.32 62.79-29.32L62.79-29.32Q66.33-29.32 69.21-28.36 72.09-27.39 74.13-25.49 76.17-23.58 77.28-20.74 78.39-17.9 78.39-14.16L78.39-14.16 78.39 0 71.19 0 71.19-12.99Q71.19-15.36 70.52-17.22 69.85-19.09 68.64-20.37 67.43-21.66 65.76-22.33 64.08-23 62.08-23L62.08-23Q60.98-23 59.84-22.79 58.69-22.58 57.6-22.14 56.52-21.7 55.56-21.03 54.61-20.36 53.9-19.46L53.9-19.46 53.9 0 46.7 0 46.7-12.99Q46.7-15.36 46.03-17.22 45.36-19.09 44.15-20.37 42.94-21.66 41.25-22.33 39.55-23 37.52-23L37.52-23Q36.28-23 35.02-22.74 33.76-22.49 32.6-22.02 31.44-21.56 30.43-20.9 29.42-20.24 28.61-19.41L28.61-19.41 28.61 0 21.38 0ZM87.47 0L87.47-28.81 94.7-28.81 94.7-24.66Q97.09-26.44 99.75-27.73 102.41-29.03 105.05-29.71L105.05-29.71 107.17-23.1Q103-22.68 99.84-21.23 96.67-19.78 94.7-17.14L94.7-17.14 94.7 0 87.47 0ZM111.17-14.5L111.17-14.5Q111.17-17.43 112.37-20.1 113.57-22.78 115.81-24.83 118.06-26.88 121.32-28.1 124.58-29.32 128.73-29.32L128.73-29.32Q132.85-29.32 136.16-28.09 139.47-26.86 141.78-24.71 144.08-22.56 145.32-19.65 146.55-16.75 146.55-13.43L146.55-13.43Q146.55-13.01 146.54-12.54 146.53-12.06 146.48-11.67L146.48-11.67 119.23-11.67Q119.69-10.38 120.73-9.3 121.77-8.23 123.33-7.45 124.89-6.67 126.95-6.24 129-5.81 131.49-5.81L131.49-5.81Q133.98-5.81 136.44-6.34 138.91-6.86 141.15-7.67L141.15-7.67 143.6-2.15Q142.18-1.49 140.73-0.99 139.27-0.49 137.7-0.16 136.13 0.17 134.4 0.34 132.68 0.51 130.78 0.51L130.78 0.51Q125.92 0.51 122.26-0.66 118.6-1.83 116.13-3.86 113.66-5.88 112.42-8.62 111.17-11.35 111.17-14.5ZM119.23-17.31L138.88-17.31Q138.49-18.51 137.68-19.54 136.86-20.58 135.64-21.35 134.42-22.12 132.81-22.56 131.19-23 129.26-23L129.26-23Q127.21-23 125.53-22.53 123.85-22.07 122.58-21.29 121.31-20.51 120.46-19.48 119.62-18.46 119.23-17.31L119.23-17.31ZM171.81 0L171.81-38.16 192.2-38.16Q195.93-38.16 198.71-37.37 201.48-36.57 203.31-35.18 205.14-33.79 206.03-31.87 206.92-29.96 206.92-27.73L206.92-27.73Q206.92-24.1 204.63-21.36L204.63-21.36Q207.26-19.8 208.56-17.31 209.85-14.82 209.85-11.65L209.85-11.65Q209.85-8.98 208.96-6.84 208.07-4.69 206.25-3.16 204.43-1.64 201.66-0.82 198.89 0 195.13 0L195.13 0 171.81 0ZM179.55-23.51L195.18-23.51Q196.18-23.51 197.13-23.44L197.13-23.44Q198.77-25 198.77-27L198.77-27Q198.77-29.08 197.14-30.21 195.52-31.35 192.39-31.35L192.39-31.35 179.55-31.35 179.55-23.51ZM179.55-6.74L195.32-6.74Q198.45-6.74 200.07-8.08 201.7-9.42 201.7-11.87L201.7-11.87Q201.7-14.31 200.07-15.67 198.45-17.04 195.32-17.04L195.32-17.04 179.55-17.04 179.55-6.74ZM215.05-14.4L215.05-14.4Q215.05-17.5 216.31-20.21 217.56-22.92 219.89-24.95 222.23-26.98 225.53-28.15 228.84-29.32 232.97-29.32L232.97-29.32Q237.09-29.32 240.4-28.15 243.71-26.98 246.04-24.95 248.37-22.92 249.63-20.21 250.89-17.5 250.89-14.4L250.89-14.4Q250.89-11.3 249.63-8.59 248.37-5.88 246.04-3.86 243.71-1.83 240.4-0.66 237.09 0.51 232.97 0.51L232.97 0.51Q228.84 0.51 225.53-0.66 222.23-1.83 219.89-3.86 217.56-5.88 216.31-8.59 215.05-11.3 215.05-14.4ZM222.64-14.4L222.64-14.4Q222.64-12.67 223.34-11.12 224.03-9.57 225.36-8.39 226.69-7.2 228.61-6.51 230.53-5.81 232.97-5.81L232.97-5.81Q235.41-5.81 237.33-6.51 239.24-7.2 240.57-8.39 241.9-9.57 242.6-11.12 243.3-12.67 243.3-14.4L243.3-14.4Q243.3-16.14 242.6-17.7 241.9-19.26 240.57-20.45 239.24-21.63 237.33-22.33 235.41-23.02 232.97-23.02L232.97-23.02Q230.53-23.02 228.61-22.33 226.69-21.63 225.36-20.45 224.03-19.26 223.34-17.7 222.64-16.14 222.64-14.4ZM258.38 0L258.38-40.5 265.61-40.5 265.61 0 258.38 0ZM273.12-14.4L273.12-14.4Q273.12-17.5 274.38-20.21 275.64-22.92 277.97-24.95 280.3-26.98 283.61-28.15 286.92-29.32 291.04-29.32L291.04-29.32Q295.17-29.32 298.48-28.15 301.79-26.98 304.12-24.95 306.45-22.92 307.71-20.21 308.96-17.5 308.96-14.4L308.96-14.4Q308.96-11.3 307.71-8.59 306.45-5.88 304.12-3.86 301.79-1.83 298.48-0.66 295.17 0.51 291.04 0.51L291.04 0.51Q286.92 0.51 283.61-0.66 280.3-1.83 277.97-3.86 275.64-5.88 274.38-8.59 273.12-11.3 273.12-14.4ZM280.72-14.4L280.72-14.4Q280.72-12.67 281.41-11.12 282.11-9.57 283.44-8.39 284.77-7.2 286.69-6.51 288.6-5.81 291.04-5.81L291.04-5.81Q293.49-5.81 295.4-6.51 297.32-7.2 298.65-8.39 299.98-9.57 300.68-11.12 301.37-12.67 301.37-14.4L301.37-14.4Q301.37-16.14 300.68-17.7 299.98-19.26 298.65-20.45 297.32-21.63 295.4-22.33 293.49-23.02 291.04-23.02L291.04-23.02Q288.6-23.02 286.69-22.33 284.77-21.63 283.44-20.45 282.11-19.26 281.41-17.7 280.72-16.14 280.72-14.4ZM316.26 0L316.26-28.81 323.49-28.81 323.49-26.37Q326.37-28 328.99-28.66 331.62-29.32 334.13-29.32L334.13-29.32Q337.43-29.32 340.24-28.36 343.04-27.39 345.09-25.49 347.15-23.58 348.31-20.74 349.46-17.9 349.46-14.16L349.46-14.16 349.46 0 342.26 0 342.26-12.99Q342.26-15.36 341.59-17.22 340.92-19.09 339.66-20.37 338.41-21.66 336.61-22.33 334.82-23 332.59-23L332.59-23Q331.42-23 330.19-22.75 328.96-22.51 327.77-22.06 326.59-21.61 325.49-20.94 324.39-20.26 323.49-19.41L323.49-19.41 323.49 0 316.26 0ZM362.13-32.74L362.13-32.74Q361.06-32.74 360.19-33.04 359.33-33.35 358.72-33.87 358.1-34.4 357.78-35.1 357.45-35.79 357.45-36.57L357.45-36.57Q357.45-37.38 357.78-38.07 358.1-38.77 358.72-39.28 359.33-39.79 360.19-40.1 361.06-40.41 362.13-40.41L362.13-40.41Q363.23-40.41 364.1-40.1 364.97-39.79 365.58-39.28 366.19-38.77 366.52-38.07 366.85-37.38 366.85-36.57L366.85-36.57Q366.85-35.79 366.52-35.1 366.19-34.4 365.58-33.87 364.97-33.35 364.1-33.04 363.23-32.74 362.13-32.74ZM358.52 0L358.52-28.81 365.75-28.81 365.75 0 358.52 0Z" opacity="1" transform="matrix(1,0,0,1,0,0)" fill="#ff0000" class="undefined-text-0" data-fill-palette-color="primary" id="text-0"></path></svg></g></svg></g></svg></g></svg></g></svg></g></svg></g></svg></g><path d="M221.627 103.769L221.627 39.214 390.399 39.214 390.399 207.986 221.627 207.986 221.627 143.431 224.122 143.431 224.122 205.492 387.905 205.492 387.905 41.708 224.122 41.708 224.122 103.769Z" fill="#ff0000" stroke="transparent" data-fill-palette-color="primary"></path></svg></g><defs></defs></svg><rect width="395.52" height="247.2" fill="none" stroke="none" visibility="hidden"></rect></g></svg></g></svg>